# xmcd
#
# Track frame offsets:
#	150
#	17475
#	32690
#	42876
#	60521
#	72820
#	86674
#	100800
#	108248
#	124741
#	141371
#	153981
#	170554
#	182002
#
# Disc length: 2593 seconds
#
# Revision: 1
# Processed by: cddbd v1.5.2PL0 Copyright (c) Steve Scherf et al.
# Submitted via: audiograbber 1.83.01
#
DISCID=b10a1f0e
DTITLE=Smokestack Lightning - Soulbeat
DYEAR=1900
DGENRE=Rockabilly
TTITLE0=Soulbeat
TTITLE1=Hell´s Angels
TTITLE2=Run For Your Life
TTITLE3=Walk Away
TTITLE4=Louisiana
TTITLE5=Travellin´ Bone
TTITLE6=Down To Your Heart
TTITLE7=Real Gone Daddy
TTITLE8=Ring Of Fire
TTITLE9=Gentle On My Mind
TTITLE10=Rockabilly Blues
TTITLE11=Don´t Think Twice
TTITLE12=Unknown Stuntman
TTITLE13=Call Me Shorty
EXTD=
EXTT0=
EXTT1=
EXTT2=
EXTT3=
EXTT4=
EXTT5=
EXTT6=
EXTT7=
EXTT8=
EXTT9=
EXTT10=
EXTT11=
EXTT12=
EXTT13=
PLAYORDER=
